# xmcd
#
# Track frame offsets: 
#        150
#        23277
#        44424
#        61553
#        83080
#        101263
#        122064
#        140884
#        162779
#        182042
#        201896
#        221158
#        245030
#        262885
#        280140
#
# Disc length: 3981 seconds
#
# Revision: 0
# Processed by: cddbd v1.5.2PL0 Copyright (c) Steve Scherf et al.
# Submitted via: ExactAudioCopy v1.0b1
#
DISCID=cd0f8b0f
DTITLE=Duy Manh and Xuan Hieu - Bai hat cho nguoi thuy thu
DYEAR=2010
DGENRE=Pop
TTITLE0=Bai hat cho nguoi thuy thu
TTITLE1=Chi con anh mat
TTITLE2=Doi thua bac
TTITLE3=Anh da yeu em
TTITLE4=Anh mong duoc ben em
TTITLE5=De ngay mai lai thay co em
TTITLE6=Se mai khong thanh
TTITLE7=Xin mot lan cuoi
TTITLE8=Dieu anh muon noi
TTITLE9=Chi mot lan em den
TTITLE10=Hay quen
TTITLE11=Vi yeu
TTITLE12=Nan nhan cua em
TTITLE13=Yeu de lam chi
TTITLE14=Buon ta toi
EXTD=
EXTT0=
EXTT1=
EXTT2=
EXTT3=
EXTT4=
EXTT5=
EXTT6=
EXTT7=
EXTT8=
EXTT9=
EXTT10=
EXTT11=
EXTT12=
EXTT13=
EXTT14=
PLAYORDER=
